`                          888      888 888               888 888 
                           888      888 888               888 888 
                           888      888 888               888 888 
              .d88b.   .d88888  .d88888 88888b.   8888b.  888 888 
             d88""88b d88" 888 d88" 888 888 "88b     "88b 888 888 
             888  888 888  888 888  888 888  888 .d888888 888 888 
             Y88..88P Y88b 888 Y88b 888 888 d88P 888  888 888 888 
              "Y88P"   "Y88888  "Y88888 88888P"  "Y888888 888 888 
                                       -links.com

Changeling is a 2008 American drama film directed by Clint Eastwood and written by J. Michael Straczynski. Based on real life events in 1928 Los Angeles, the film stars Angelina Jolie as a woman who is reunited with her missing son—only to realize he is an impostor. She confronts the city authorities, who vilify her as an unfit mother and brand her delusional. The dramatized incident was connected to the "Wineville Chicken Coop" kidnapping and murder case. Changeling explores female disempowerment, political corruption, child endangerment and the repercussions of violence. Ron Howard intended to direct, but scheduling conflicts led to his replacement by Eastwood. Howard and Imagine Entertainment partner Brian Grazer produced, alongside Malpaso Productions' Robert Lorenz and Eastwood. Universal Pictures financed and distributed the film.

                                    +-+-+-+-+
                                    |c|a|s|t|
                                    +-+-+-+-+
                                         
                  Actor                             Role

                  Angelina Jolie .................  Christine Collins 

                  Gattlin Griffith ...............  Walter Collins 

                  Michelle Gunn ..................  Sandy 

                  Frank Wood .....................  Ben Harris 
       
                  Morgan Eastwood ................  Girl on Tricycle 
 
                  Madison Hodges .................  Neighborhood Girl 

                  John Malkovich .................  Rev. Gustav Briegleb 


General
Complete name                    : Changeling 
Format                           : AVI
Format/Info                      : Audio Video Interleave
File size                        : 991 MiB
Duration                         : 2h 15mn
Overall bit rate                 : 1 019 Kbps

Video
Format                           : MPEG-4 Visual
Format profile                   : Streaming Video@L1
Format settings, BVOP            : Yes
Format settings, QPel            : No
Format settings, GMC             : No warppoints
Format settings, Matrix          : Default
Muxing mode                      : Packed bitstream
Codec ID                         : XVID
Codec ID/Hint                    : XviD
Duration                         : 2h 15mn
Bit rate                         : 815 Kbps
Width                            : 1 024 pixels
Height                           : 582 pixels
Display aspect ratio             : 16/9
Frame rate                       : 29.970 fps
Resolution                       : 24 bits
Colorimetry                      : 4:2:0
Scan type                        : Progressive
Bits/(Pixel*Frame)               : 0.046
Stream size                      : 792 MiB (80%)
Writing library                  : XviD 1.1.0 (UTC 2005-11-22)

Audio
Format                           : MPEG Audio
Format version                   : Version 1
Format profile                   : Layer 3
Codec ID                         : 55
Codec ID/Hint                    : MP3
Duration                         : 2h 15mn
Bit rate mode                    : Constant
Bit rate                         : 192 Kbps
Channel(s)                       : 2 channels
Sampling rate                    : 44.1 KHz
Resolution                       : 16 bits
Video delay                      : 26ms
Stream size                      : 187 MiB (19%)
Alignment                        : Split accross interleaves
Interleave, duration             : 33 ms (1.00 video frame)
Title                            : Audio Stream
Writing library                  : LAME3.92


For more oddball torrents  http://thepiratebay.org/user/oddball-links `                                                                                                            Please seed after downloading `                                                                                            :::===  :::===== :::===== :::====       :::= === :::====  :::====
        :::     :::      :::      :::  ===      :::===== :::  === :::====
         =====  ======   ======   ===  ===      ======== ===  ===   ===  
            === ===      ===      ===  ===      === ==== ===  ===   ===  
        ======  ======== ======== =======       ===  ===  ======    ===  
                                                                         
                  :::=====  :::====  :::===== :::===== :::==== 
                  :::       :::  === :::      :::      :::  ===
                  === ===== =======  ======   ======   ===  ===
                  ===   === === ===  ===      ===      ===  ===
                   =======  ===  === ======== ======== =======